PathFileType	4	(X/Y/Z)	./resultDataOpenSim/trcMotMarkerGrf/sub06/qtm-01-04.trc
DataRate	CameraRate	NumFrames	NumMarkers	Units	OrigDataRate	OrigDataStartFrame	OrigNumFrames
250.000000	250.000000	9	24	m	250.000000	194	515
Frame#	Time	L.Toe.Tip			R.Toe.Tip			L.Ankle.Lat			R.Ankle.Lat			L.Ankle.Med			R.Ankle.Med			L.Heel			R.Heel			L.Knee.Lat			R.Knee.Lat			L.Knee.Med			R.Knee.Med			L.Thigh.Upper			R.Thigh.Upper			L.ASIS			R.ASIS			V.Sacral			L.Acromium			R.Acromium			C7			L.Elbow			R.Elbow			L.Wrist.Lat			R.Wrist.Lat
		X1	Y1	Z1	X2	Y2	Z2	X3	Y3	Z3	X4	Y4	Z4	X5	Y5	Z5	X6	Y6	Z6	X7	Y7	Z7	X8	Y8	Z8	X9	Y9	Z9	X10	Y10	Z10	X11	Y11	Z11	X12	Y12	Z12	X13	Y13	Z13	X14	Y14	Z14	X15	Y15	Z15	X16	Y16	Z16	X17	Y17	Z17	X18	Y18	Z18	X19	Y19	Z19	X20	Y20	Z20	X21	Y21	Z21	X22	Y22	Z22	X23	Y23	Z23	X24	Y24	Z24

194	0.772	0.097037639	0.034922344	-0.015737383	-0.62990072	0.073571044	0.13413133	-0.023600012	0.066943822	-0.041480964	-0.6239043	0.21247972	0.17201359	-0.027990301	0.078990045	0.045473219	-0.58528788	0.20089096	0.091113401	-0.1023564	0.039690436	-0.00096838877	-0.64403478	0.2578088	0.10690148	0.038039078	0.43550593	-0.057792911	-0.27683323	0.38094732	0.20766661	0.004923406	0.43092446	0.059672935	-0.28396724	0.36376383	0.078364628	-0.13795477	0.78824326	-0.134355	-0.24457039	0.73849112	0.19568118	-0.087552019	0.82225242	-0.071905005	-0.13349985	0.79829535	0.16799206	-0.29373131	0.88510275	0.031552664	-0.17637737	1.2826726	-0.15722775	-0.18121211	1.2869876	0.20694827	-0.25834428	1.3263635	0.021553478	-0.27031646	0.98219184	-0.18676949	-0.23807048	0.97071127	0.28169159	-0.19383265	0.75590535	-0.23767873	-0.040745159	0.8183629	0.28626571
195	0.776	0.096956462	0.034981491	-0.015896158	-0.61535988	0.075276278	0.13578688	-0.023645952	0.066869141	-0.041594196	-0.61113056	0.21479967	0.17181298	-0.027819155	0.079064624	0.04541598	-0.57249316	0.20269667	0.090909178	-0.1024041	0.039647865	-0.00084461777	-0.63241688	0.2591894	0.10666868	0.040610633	0.43493695	-0.058128125	-0.26394714	0.38150066	0.20798136	0.0072314996	0.4307562	0.059281359	-0.27220871	0.36439491	0.078673407	-0.13217214	0.78942983	-0.13475742	-0.23647265	0.73998249	0.19391084	-0.081655277	0.82363312	-0.072373837	-0.12743266	0.80041196	0.16777853	-0.287805	0.88715355	0.030121019	-0.1692459	1.2846988	-0.15715574	-0.17498017	1.2886811	0.20698046	-0.2516889	1.3281623	0.021490843	-0.26232274	0.98367492	-0.18722675	-0.23313558	0.97256191	0.28058462	-0.18327937	0.75811921	-0.23819809	-0.037590401	0.81800438	0.28640481
196	0.78	0.096865411	0.035037275	-0.016054904	-0.60061568	0.076825571	0.13738277	-0.02372535	0.066802697	-0.041734995	-0.59819683	0.21667608	0.17167764	-0.02772136	0.079135194	0.045340018	-0.5595793	0.20437579	0.090791332	-0.1024756	0.039613174	-0.00077616771	-0.62070973	0.26057466	0.10665977	0.043030936	0.43442379	-0.058436152	-0.25108871	0.38219755	0.20824425	0.0093986029	0.43071978	0.058872111	-0.26013759	0.36505915	0.078677546	-0.12650722	0.79062255	-0.13513582	-0.22847822	0.74145304	0.1921682	-0.075779462	0.82508446	-0.072801529	-0.12139372	0.80255198	0.16758373	-0.28223293	0.88932382	0.027876074	-0.16216294	1.2867928	-0.15705551	-0.16882173	1.290429	0.20703999	-0.24507433	1.3299935	0.021445405	-0.25432963	0.98521396	-0.18770372	-0.22807619	0.97448452	0.27952741	-0.1726784	0.76043493	-0.23867398	-0.034513699	0.81772873	0.28654395
197	0.784	0.096768655	0.035075125	-0.016187046	-0.58565943	0.078230334	0.13891094	-0.023842593	0.066743542	-0.041901284	-0.58513116	0.2181911	0.17160608	-0.027698434	0.079200433	0.045250925	-0.54656469	0.20594209	0.090761946	-0.10257852	0.039596683	-0.00079561847	-0.60907972	0.2619897	0.10692964	0.045319127	0.43397017	-0.058706015	-0.23828395	0.3830323	0.20845107	0.01143155	0.43076534	0.058454107	-0.2478357	0.36579745	0.078581156	-0.12096704	0.79182037	-0.13549787	-0.22122328	0.74308414	0.19106726	-0.06991291	0.82660233	-0.07318439	-0.1153875	0.80470624	0.16740176	-0.27710834	0.89161147	0.025061565	-0.15512447	1.2889439	-0.15692724	-0.16272279	1.2922252	0.20712462	-0.23848873	1.3318598	0.021417648	-0.24634543	0.98678821	-0.1882122	-0.22293893	0.97648245	0.27853505	-0.16204709	0.76284968	-0.2391043	-0.031535419	0.81755025	0.28669979
198	0.788	0.09667317	0.035098592	-0.016291789	-0.57049071	0.079494369	0.1403611	-0.023975746	0.066696225	-0.042063378	-0.57194147	0.21945808	0.1715875	-0.027721043	0.079263299	0.045163003	-0.53342564	0.20735849	0.09077193	-0.10269923	0.039605868	-0.00088871185	-0.59743573	0.26331016	0.10733668	0.04747354	0.43357482	-0.05894529	-0.22553413	0.3840172	0.20861015	0.013345228	0.43082939	0.058060119	-0.23538544	0.36665152	0.078525731	-0.11553043	0.79302673	-0.13585505	-0.21467398	0.74496484	0.19070781	-0.064078741	0.82817661	-0.073535542	-0.10941851	0.80686505	0.16722764	-0.27213768	0.8938876	0.022701672	-0.14813444	1.2911413	-0.15677276	-0.15667317	1.2940628	0.20723515	-0.23192928	1.3337597	0.021409751	-0.23839602	0.98839106	-0.18878152	-0.21783631	0.97855036	0.27760325	-0.15140547	0.76535509	-0.23949398	-0.02865573	0.81747191	0.28688039
199	0.792	0.096584985	0.035115191	-0.016374703	-0.55510495	0.080628517	0.14172881	-0.02409606	0.066667973	-0.042186303	-0.55862982	0.22057017	0.17160617	-0.027765024	0.079325505	0.045086455	-0.52017977	0.20859774	0.090810569	-0.10280479	0.039642569	-0.00098636782	-0.58553588	0.26432615	0.10765928	0.049483933	0.43323283	-0.059172202	-0.21283026	0.3851622	0.20873341	0.015175712	0.43088606	0.057723413	-0.22282947	0.36764188	0.078527003	-0.11018036	0.79423733	-0.13620933	-0.20838434	0.74705631	0.19074164	-0.058343438	0.82978879	-0.073886949	-0.10348224	0.80901895	0.16705995	-0.26688019	0.89599258	0.021830066	-0.14119847	1.2933762	-0.15659411	-0.15067237	1.295933	0.20736955	-0.22539569	1.3356887	0.021426191	-0.23050269	0.99002871	-0.1894413	-0.21286985	0.98067158	0.27672269	-0.14077054	0.76793494	-0.23985007	-0.02585677	0.81748276	0.2870834
200	0.796	0.096507499	0.035128634	-0.016441338	-0.53947936	0.081652311	0.1430252	-0.024199086	0.066662295	-0.04226508	-0.54520232	0.22157651	0.17164696	-0.027819489	0.079390458	0.045025805	-0.50683283	0.20964811	0.090881032	-0.10286474	0.039700111	-0.00099607526	-0.57327676	0.26492428	0.10780576	0.051353634	0.43293437	-0.059393266	-0.20016207	0.38646201	0.20882544	0.016969877	0.43095587	0.05745536	-0.21022721	0.36878867	0.078487678	-0.10489865	0.79545162	-0.13655332	-0.20208343	0.74925689	0.19082531	-0.052764839	0.8314204	-0.074267083	-0.09756773	0.81116393	0.16689839	-0.26120266	0.89794636	0.022306037	-0.13431606	1.2956449	-0.15639576	-0.14472621	1.2978277	0.20752212	-0.21888243	1.3376424	0.021468106	-0.22267087	0.99171364	-0.19021061	-0.20810906	0.98282235	0.27589984	-0.1301422	0.77057702	-0.24017081	-0.02312299	0.81757365	0.28730278
201	0.8	0.096440176	0.035140433	-0.016496447	-0.5235853	0.082579289	0.14427532	-0.024300435	0.066676592	-0.042320927	-0.53167057	0.22248203	0.17169726	-0.027880811	0.079463849	0.044979439	-0.49335499	0.21049886	0.090975921	-0.10287447	0.039767201	-0.00087170386	-0.56075243	0.26514649	0.10784107	0.053102412	0.43266835	-0.059597956	-0.18752856	0.38790965	0.20888394	0.018736595	0.43105365	0.057243738	-0.19764756	0.37011768	0.07831343	-0.099635983	0.79668807	-0.13687922	-0.19578444	0.75146888	0.19089092	-0.047317911	0.83306366	-0.074682113	-0.091664917	0.81330093	0.16673345	-0.25523873	0.89989588	0.023145893	-0.12748261	1.2979481	-0.15618346	-0.13882821	1.2997384	0.2076898	-0.21238109	1.3396191	0.021529052	-0.21489042	0.99345306	-0.19108971	-0.20354888	0.98498869	0.27514415	-0.11948553	0.77328417	-0.24043634	-0.020452664	0.81774466	0.28753479
202	0.804	0.09638042	0.035150243	-0.01653895	-0.50740405	0.083414767	0.14550712	-0.024408959	0.066702349	-0.042371591	-0.51805265	0.22325903	0.17174632	-0.027950292	0.079549629	0.044937983	-0.47972929	0.21115134	0.091096795	-0.10286175	0.039832526	-0.00067366156	-0.54811007	0.26509237	0.10786957	0.054754864	0.43242864	-0.059773952	-0.17493761	0.38950607	0.20890635	0.02047231	0.43117382	0.057080991	-0.18510542	0.37162129	0.078032066	-0.094338124	0.79796149	-0.13718546	-0.18958372	0.7536385	0.19106854	-0.041910891	0.8347197	-0.075125421	-0.085773381	0.81542815	0.16654408	-0.24906832	0.90185836	0.023799827	-0.12069369	1.3002814	-0.15595828	-0.13295283	1.3016554	0.2078711	-0.20588822	1.341617	0.021601483	-0.20713879	0.99523854	-0.19205102	-0.19908028	0.98717872	0.27445934	-0.1087524	0.7760666	-0.24061757	-0.017852026	0.81799794	0.28777836
